<mxfile host="app.diagrams.net" modified="2024-04-23T03:07:17.219Z" agent="Mozilla/5.0 (Macintosh; Intel Mac OS X 10_15_7) AppleWebKit/537.36 (KHTML, like Gecko) Chrome/123.0.0.0 Safari/537.36" version="24.2.5" etag="9Hq9N27cFCJPwFJ78Scb" type="github">
  <diagram name="第 1 页" id="HmSOIc3_bZT5mQK5KUVo">
    <mxGraphModel>
      <root>
        <mxCell id="0" />
        <mxCell id="1" parent="0" />
      </root>
    </mxGraphModel>
  </diagram>
</mxfile>
